PathFileType	4	(X/Y/Z)	 s11c0401.trc
DataRate	CameraRate	NumFrames	NumMarkers	Units	OrigDataRate	OrigDataStartFrame	OrigNumFrames
200	200	6	48	mm	200	1251	2000
Frame#	Time	racr			lacr			c7			jug			rlel			rdr			llel			ldr			s2			lic			ric			lasi			rasi			rpsi			lpsi			rgt			lgt			rth1			rth2			rth3			rth4			rlfc			rmfc			rsh1			rsh2			rsh3			rsh4			rlmal			rcal			rtoe			rmt5			lth1			lth2			lth4			lth3			llfc			lmfc			llmal			lcal			lmt5			lsh1			lsh2			lsh3			lsh4			ltoe			SBIKE			LBIKE			RBIKE			
		X1	Y1	Z1	X2	Y2	Z2	X3	Y3	Z3	X4	Y4	Z4	X5	Y5	Z5	X6	Y6	Z6	X7	Y7	Z7	X8	Y8	Z8	X9	Y9	Z9	X10	Y10	Z10	X11	Y11	Z11	X12	Y12	Z12	X13	Y13	Z13	X14	Y14	Z14	X15	Y15	Z15	X16	Y16	Z16	X17	Y17	Z17	X18	Y18	Z18	X19	Y19	Z19	X20	Y20	Z20	X21	Y21	Z21	X22	Y22	Z22	X23	Y23	Z23	X24	Y24	Z24	X25	Y25	Z25	X26	Y26	Z26	X27	Y27	Z27	X28	Y28	Z28	X29	Y29	Z29	X30	Y30	Z30	X31	Y31	Z31	X32	Y32	Z32	X33	Y33	Z33	X34	Y34	Z34	X35	Y35	Z35	X36	Y36	Z36	X37	Y37	Z37	X38	Y38	Z38	X39	Y39	Z39	X40	Y40	Z40	X41	Y41	Z41	X42	Y42	Z42	X43	Y43	Z43	X44	Y44	Z44	X45	Y45	Z45	X46	Y46	Z46	X47	Y47	Z47	X48	Y48	Z48	
1251	6.2550	789.453344	1333.827454	-25.602499	753.805703	1340.460248	-359.254154	757.350546	1433.930913	-186.504849	720.830355	1255.404181	-200.177513	597.402415	1128.978253	87.194166	760.221081	962.100644	-31.853900	562.847247	1163.038742	-541.615730	765.256578	949.278466	-449.165293	142.675779	1323.757422	-217.538427	361.038822	1296.803335	-416.723791	346.190987	1275.902122	-12.387572	369.904092	1211.923403	-388.395700	352.089349	1208.250641	-57.251126	203.790012	1388.158120	-163.663636	200.035894	1381.692464	-255.623709	272.470496	1149.271279	-9.784787	248.607196	1181.524187	-431.443489	353.606409	1026.678056	-13.044804	421.135461	971.123320	-29.201725	450.322172	890.011818	-47.326573	450.060711	992.319158	-37.838565	506.047379	799.224381	-68.491653	499.001353	780.050874	-192.827074	443.262607	647.116737	-55.681140	432.834850	561.374546	-74.892088	383.319499	489.725730	-75.872850	456.630565	556.442827	-106.744813	320.524855	369.864890	-87.432897	251.096930	362.572584	-136.670240	528.122335	282.941475	-128.227429	453.672433	267.664866	-60.173520	340.070628	1060.108623	-458.952552	402.834969	1001.742017	-458.046079	433.905081	1019.388298	-448.759552	429.416075	915.893437	-462.085964	480.571026	786.595592	-444.262621	497.282336	769.507431	-317.906161	146.931781	523.376923	-417.790246	93.005134	551.049539	-379.254526	137.868937	348.046966	-445.226021	382.771606	706.840710	-461.767558	334.663207	637.710560	-444.767049	255.844943	598.414392	-439.359471	357.409458	616.161831	-422.489716	199.638260	272.052815	-376.402605	-203.737508	960.206699	-260.253313	1.514512	83.093142	-460.900715	-15.133918	81.229062	-62.416361	
1252	6.2600	790.430407	1334.603646	-27.470452	753.416754	1342.203081	-361.519322	757.075556	1435.231838	-188.485002	720.809344	1255.841977	-200.830667	598.696886	1130.487236	87.345947	760.456434	962.127787	-31.101100	562.907692	1162.327656	-541.841357	765.376832	949.404439	-449.249154	142.078080	1322.058176	-216.642204	360.865768	1296.470535	-415.643265	346.832486	1272.390904	-12.591745	369.731681	1211.558623	-387.338714	352.913947	1204.583125	-57.158359	203.568357	1385.896099	-162.156382	199.911044	1380.067057	-254.897602	270.325031	1145.107754	-10.203035	249.956080	1182.221614	-431.861350	348.548176	1020.757796	-12.782410	414.799896	963.643730	-28.871698	441.937026	882.136426	-47.488993	444.065899	984.141917	-36.741469	495.448662	790.289148	-67.648511	488.608319	771.074892	-192.244291	433.621373	638.550619	-55.488329	424.731310	552.651013	-74.309870	376.184766	480.254596	-75.555244	449.133382	547.586402	-105.765892	316.014064	358.627270	-87.493875	246.887768	351.367252	-136.900042	524.017809	273.431933	-128.046974	449.881514	257.201436	-60.292971	342.823317	1062.005911	-460.068431	406.653578	1004.831985	-459.065215	437.401650	1023.114073	-449.693480	434.779542	919.440841	-462.874501	489.247413	791.612877	-444.787406	506.962382	775.345258	-317.642272	153.143261	532.728650	-417.561450	99.664688	561.294428	-378.906026	141.668858	357.674140	-444.964408	390.870820	713.017175	-461.817174	342.055002	644.358571	-444.656041	262.825808	605.984556	-439.097704	364.600601	622.554433	-422.578507	202.246470	280.639705	-376.330299	-203.687382	960.163327	-260.537043	1.506577	83.068242	-460.872617	-15.134251	81.212190	-62.406975	
1253	6.2650	791.405260	1335.493257	-29.194346	753.040258	1343.970417	-363.746093	756.756707	1436.491314	-190.330053	721.330331	1256.489529	-202.219527	599.918983	1131.986249	87.458122	760.469637	962.001841	-30.572277	563.030432	1161.463278	-541.941368	765.791614	949.683957	-450.201424	141.888052	1320.004600	-216.319679	360.768846	1295.838657	-414.640148	347.510748	1268.760366	-12.808409	369.629133	1211.085585	-386.138234	354.025914	1200.976958	-57.032241	203.293780	1383.541799	-160.602442	199.606087	1378.181245	-253.790670	268.053446	1140.687420	-10.630118	251.172217	1182.828964	-432.401010	343.308744	1014.880237	-12.623275	408.283609	956.133890	-28.614807	433.357994	874.047995	-47.621769	438.166368	975.986423	-36.308036	484.452115	781.629624	-67.712271	479.980776	761.649433	-191.462135	423.900003	630.199759	-55.405736	416.343134	544.017871	-73.812651	368.809637	471.082424	-75.465397	441.285437	539.243202	-104.891802	311.092625	347.773658	-87.658504	242.111287	340.417612	-137.249219	519.563421	263.799925	-128.092247	445.389661	247.015701	-60.402562	345.238815	1063.692254	-461.277550	410.169425	1007.712359	-459.949005	440.554406	1026.564480	-450.266217	439.826945	922.843092	-463.684985	497.632743	796.695445	-445.334547	515.524471	780.971076	-317.882784	159.514261	541.874635	-417.330647	106.573199	571.121981	-378.583975	145.897858	367.163333	-444.751531	398.863337	719.228885	-461.883000	349.427284	651.054229	-444.622059	269.795545	613.541276	-438.876971	371.848049	629.026929	-422.504617	205.628897	289.371249	-376.060264	-203.666843	960.194578	-260.192838	1.501442	83.006703	-460.887150	-15.150520	81.181635	-62.372917	
1254	6.2700	792.233258	1336.568483	-31.012496	752.666997	1345.761529	-365.948572	756.288944	1437.948517	-192.282047	721.788451	1257.097719	-203.463169	601.152533	1133.560683	87.650397	760.344265	961.720152	-30.251480	563.136258	1160.682824	-541.973817	766.552867	950.035172	-451.924466	141.562810	1317.638988	-215.882384	360.731781	1295.330281	-413.581695	348.141975	1265.149122	-12.946212	369.629222	1210.534570	-385.020326	355.240355	1197.395512	-56.801333	202.953045	1380.904111	-159.109770	199.293507	1376.233057	-252.757394	265.650085	1136.104519	-11.231803	252.225584	1183.177979	-433.018180	337.921177	1009.064464	-12.394962	401.518532	948.673308	-28.412933	424.638579	866.201407	-47.629788	432.214140	967.649735	-35.801313	473.508625	772.935090	-67.958790	468.833323	754.089270	-190.882647	413.946388	622.051470	-55.479775	407.633823	535.731165	-73.602087	360.883575	462.193050	-75.420311	433.161235	531.185119	-104.129901	305.576952	337.437004	-87.856332	236.700696	330.135542	-137.629834	514.476236	254.280160	-127.999577	440.348236	237.206253	-60.458874	347.517374	1065.145548	-462.316435	413.421294	1010.351476	-460.562523	443.336703	1029.647468	-450.309610	444.603514	926.022610	-464.567533	505.692983	801.881486	-445.787762	524.630549	786.667479	-317.896912	165.885334	550.986585	-417.026835	113.082854	580.545428	-378.244064	150.985561	376.278515	-444.420477	406.708385	725.526504	-461.955859	356.739127	657.770942	-444.618819	276.814866	620.833122	-438.689907	378.973483	635.552808	-422.498401	209.850597	298.040845	-375.975870	-203.644326	960.174808	-260.211022	1.490310	82.919966	-460.864738	-15.156211	81.158183	-62.378851	
1255	6.2750	792.982772	1337.694862	-32.809120	752.303429	1347.430090	-367.756445	755.736774	1439.451978	-194.258642	722.858309	1257.920190	-205.406777	602.461984	1135.205926	87.819971	760.115455	961.347386	-30.048783	563.259634	1159.762471	-542.023236	767.612948	950.265907	-454.240113	141.086853	1315.261634	-215.262137	360.762109	1294.664183	-412.674837	348.886960	1261.332252	-13.033540	369.591875	1209.888049	-383.920893	356.511857	1193.780508	-56.592431	202.528346	1378.004245	-157.807168	198.850430	1374.063989	-251.782975	263.238810	1131.342174	-11.632444	253.165241	1183.288578	-433.596638	332.526093	1003.181694	-12.105481	394.640932	941.329677	-28.297068	415.736307	858.362108	-48.029930	425.841912	959.549437	-35.513055	461.896699	764.654027	-69.002779	457.543621	747.149547	-191.615521	403.697644	614.049507	-55.538576	398.533134	527.769263	-73.528458	352.918264	453.966633	-75.428657	424.405462	523.183994	-103.779928	299.358394	327.429771	-88.152432	231.078748	319.942002	-138.092514	509.024987	244.940628	-128.133075	434.733307	227.647563	-60.627799	349.668694	1066.476043	-463.101480	416.522400	1012.912555	-460.762624	445.954745	1032.653975	-449.756261	449.230927	929.141983	-465.156588	513.439149	807.136720	-446.024639	532.896545	792.132074	-317.756972	172.249935	559.818133	-416.723150	119.550167	589.784175	-378.141825	156.409955	385.372844	-444.206120	414.391630	731.928291	-462.030545	364.025756	664.498854	-444.537952	283.874890	628.111724	-438.574118	386.135000	642.182227	-422.570324	214.873402	306.831501	-375.776336	-203.668362	960.133969	-260.215336	1.482590	82.892577	-460.877503	-15.164246	81.147857	-62.390303	
1256	6.2800	793.669650	1338.863163	-34.581522	752.012832	1349.274060	-369.938495	755.002782	1441.045242	-196.436179	723.035542	1257.796918	-204.731581	603.683412	1136.821222	87.809523	759.957044	961.090443	-30.048722	563.235135	1159.000129	-542.000927	768.791640	950.486217	-457.289386	140.864614	1312.636305	-215.034454	360.808620	1293.833271	-411.811316	349.541969	1257.553081	-13.348860	369.529075	1209.117807	-382.748733	357.986744	1190.103350	-56.244919	202.033543	1374.920294	-156.643371	198.518260	1371.872551	-252.195106	260.727218	1126.485134	-12.053081	254.012613	1183.266710	-434.375796	327.017316	997.484501	-11.799700	387.583956	934.125591	-28.237513	406.551847	850.805406	-48.508282	418.954959	951.746966	-35.216246	450.449629	756.967648	-69.584221	446.418893	740.056834	-191.967024	393.343979	606.253410	-55.752888	389.100072	519.836702	-73.576497	343.741594	445.154594	-75.959692	415.340028	515.368462	-103.549422	292.645092	317.998767	-88.516084	224.853416	310.511840	-138.478212	502.882173	236.171466	-128.232542	428.623026	218.470955	-60.788516	351.791514	1067.686486	-463.404539	419.596061	1015.354259	-460.424881	448.473292	1035.502717	-448.743287	453.887076	932.320729	-465.388303	520.879252	812.574142	-446.022817	539.532889	797.257514	-318.013923	178.586633	568.542001	-416.421916	125.806608	598.667826	-378.201525	162.421386	394.145063	-444.016044	421.938151	738.452734	-461.915017	371.219060	671.348362	-444.460881	290.895814	635.368975	-438.490962	393.222293	648.838587	-422.549220	220.642592	315.512486	-375.600037	-203.611932	960.053735	-260.690026	1.485549	82.825664	-460.891922	-15.173995	81.128693	-62.377236	
